<svg xmlns="http://www.w3.org/2000/svg" xmlns:xlink="http://www.w3.org/1999/xlink" width="186" height="190" viewBox="0 0 186 190">
  <defs>
    <filter id="Ellipse_9" x="-10" y="-10" width="216" height="220" filterUnits="userSpaceOnUse">
      <feOffset dx="5" dy="5" input="SourceAlpha"/>
      <feGaussianBlur stdDeviation="5" result="blur"/>
      <feFlood flood-opacity="0.161"/>
      <feComposite operator="in" in2="blur"/>
      <feComposite in="SourceGraphic"/>
    </filter>
    <clipPath id="clip-path">
      <g transform="matrix(1, 0, 0, 1, 0, 0)" filter="url(#Ellipse_9)">
        <ellipse id="Ellipse_9-2" data-name="Ellipse 9" cx="93" cy="95" rx="93" ry="95" transform="translate(433 166.75)" fill="rgba(236,99,47,0.8)"/>
      </g>
    </clipPath>
  </defs>
  <g id="Mask_Group_1" data-name="Mask Group 1" transform="translate(-433 -166.753)" clip-path="url(#clip-path)">
    <g id="dentist" transform="translate(451.974 187.818)">
      <path id="Path_38" data-name="Path 38" d="M104.162,176.172a9.2,9.2,0,0,1-9.2,9.2H12a9.2,9.2,0,0,1-9.2-9.2,41.99,41.99,0,0,1,42.057-42.054H62.106A42.048,42.048,0,0,1,104.162,176.172Z" transform="translate(-0.929 -29.496)" fill="#fff5f4"/>
      <path id="Path_39" data-name="Path 39" d="M55.673,134.118a41.989,41.989,0,0,0-42.057,42.054,9.2,9.2,0,0,0,9.2,9.2H12a9.2,9.2,0,0,1-9.2-9.2,41.989,41.989,0,0,1,42.057-42.054Z" transform="translate(-0.929 -29.496)" fill="#ebe0da"/>
      <path id="Path_40" data-name="Path 40" d="M81.634,135.486,70.091,185.376H54.516L43.01,135.486a42.172,42.172,0,0,1,10.683-1.367H70.951A42.172,42.172,0,0,1,81.634,135.486Z" transform="translate(-9.774 -29.496)" fill="#97d57e"/>
      <path id="Path_41" data-name="Path 41" d="M54.327,130.007v-15.7H75.294v15.7l-6.148,14.5a4.709,4.709,0,0,1-8.67,0Z" transform="translate(-12.263 -25.14)" fill="#d6995c"/>
      <path id="Path_42" data-name="Path 42" d="M51.667,185.761h-.1l-18.9-20.942a1.248,1.248,0,0,1,.068-1.781l3.776-3.681a1.308,1.308,0,0,0-.52-2.193l-5-2.106a1.482,1.482,0,0,1-.708-2.159l9.879-17.032Z" transform="translate(-6.925 -29.881)" fill="#d8cecc"/>
      <path id="Path_43" data-name="Path 43" d="M89.269,135.863l9.878,16.759a1.481,1.481,0,0,1-.71,2.159l-5,2.107a1.307,1.307,0,0,0-.517,2.192l3.777,3.68a1.249,1.249,0,0,1,.066,1.784L77.728,185.759Z" transform="translate(-17.41 -29.88)" fill="#d8cecc"/>
      <circle id="Ellipse_10" data-name="Ellipse 10" cx="11.849" cy="11.849" r="11.849" transform="translate(11.492 53.707)" fill="#c48958"/>
      <circle id="Ellipse_11" data-name="Ellipse 11" cx="11.849" cy="11.849" r="11.849" transform="translate(70.822 53.707)" fill="#c48958"/>
      <path id="Path_44" data-name="Path 44" d="M90.327,35.547V80.5a31.314,31.314,0,0,1-.161,3.155,30.6,30.6,0,0,1-60.88,0,31.314,31.314,0,0,1-.161-3.155V35.547a6.393,6.393,0,0,1,6.393-6.39H83.934a6.391,6.391,0,0,1,6.393,6.39Z" transform="translate(-6.721 -6.413)" fill="#e3a76f"/>
      <path id="Path_45" data-name="Path 45" d="M181.893,134.2a16.494,16.494,0,0,0-28.144-11.679,4.648,4.648,0,0,1-6.6,0A16.494,16.494,0,0,0,119,134.2a30.424,30.424,0,0,0,1.215,7.753l6.158,32.893a9.415,9.415,0,0,0,18.241-.01l2.041-10.9a3.851,3.851,0,0,1,7.57,0l2.042,10.907a9.415,9.415,0,0,0,18.241-.01l6.144-32.809a30.533,30.533,0,0,0,1.235-7.826Z" transform="translate(-26.488 -25.886)" fill="#fff5f4"/>
      <path id="Path_46" data-name="Path 46" d="M65.139,110.617A30.621,30.621,0,0,1,29.286,83.654a31.314,31.314,0,0,1-.161-3.155V35.547a6.393,6.393,0,0,1,6.393-6.39H46.343a6.393,6.393,0,0,0-6.393,6.39V80.5a31.314,31.314,0,0,0,.161,3.155,30.61,30.61,0,0,0,25.027,26.964Z" transform="translate(-6.721 -6.413)" fill="#d6995c"/>
      <path id="Path_47" data-name="Path 47" d="M110.381,16.993V50.92a5.875,5.875,0,0,1-7.964,5.509A16.032,16.032,0,0,1,92.065,41.208V18.691a9.157,9.157,0,0,1,9.158-9.155h1.7a7.458,7.458,0,0,1,7.46,7.457Z" transform="translate(-20.563 -2.097)" fill="#954c35"/>
      <path id="Path_48" data-name="Path 48" d="M87.21,6.8c-.031.45-.071.939-.127,1.463C86.746,11.634,85.9,21.91,83.87,27.077c-14.327,36.37-45.132,15.974-57.595,28.65a2.983,2.983,0,0,1-5.113-2.178V19.276a16.262,16.262,0,0,1,16.216-16.3H83.746A3.535,3.535,0,0,1,87.21,6.8Z" transform="translate(-4.969 -0.654)" fill="#c0694e"/>
      <path id="Path_49" data-name="Path 49" d="M90.211,99.018a30.6,30.6,0,0,1-60.88,0,36.7,36.7,0,0,0,25.352,2.731,22.345,22.345,0,0,1,10.176,0,36.7,36.7,0,0,0,25.352-2.731Z" transform="translate(-6.766 -21.777)" fill="#82cd64"/>
      <path id="Path_50" data-name="Path 50" d="M65.184,125.981A30.621,30.621,0,0,1,29.331,99.018a40.169,40.169,0,0,0,11.391,3.51,30.627,30.627,0,0,0,24.461,23.453Z" transform="translate(-6.766 -21.777)" fill="#6dc54a"/>
      <path id="Path_51" data-name="Path 51" d="M65.184,125.981A30.621,30.621,0,0,1,29.331,99.018a40.169,40.169,0,0,0,11.391,3.51,30.627,30.627,0,0,0,24.461,23.453Z" transform="translate(-6.766 -21.777)" fill="#6dc54a"/>
      <path id="Path_52" data-name="Path 52" d="M48.2,2.974a16.261,16.261,0,0,0-16.216,16.3V52.268a14.08,14.08,0,0,0-5.713,3.461,2.984,2.984,0,0,1-5.112-2.177V19.276A16.261,16.261,0,0,1,37.38,2.974Z" transform="translate(-4.97 -0.654)" fill="#ae583e"/>
      <path id="Path_53" data-name="Path 53" d="M140.911,180.208a9.414,9.414,0,0,1-14.533-5.36l-6.158-32.893A30.439,30.439,0,0,1,119,134.2a16.5,16.5,0,0,1,21.9-15.588A16.508,16.508,0,0,0,129.829,134.2a30.439,30.439,0,0,0,1.215,7.754l6.158,32.893A9.4,9.4,0,0,0,140.911,180.208Z" transform="translate(-26.487 -25.886)" fill="#ebe0da"/>
      <path id="Path_54" data-name="Path 54" d="M21.162,26.161H94.788V38.533H21.162Z" transform="translate(-4.969 -5.753)" fill="#766d78"/>
      <circle id="Ellipse_12" data-name="Ellipse 12" cx="11.985" cy="11.985" r="11.985" transform="translate(41.02 14.685)" fill="#fdc202"/>
      <path id="Path_55" data-name="Path 55" d="M21.164,26.16H31.989V38.531H21.164Z" transform="translate(-4.97 -5.753)" fill="#655e67"/>
      <path id="Path_56" data-name="Path 56" d="M69.2,42.028a11.985,11.985,0,1,1,0-22.436,11.988,11.988,0,0,0,0,22.436Z" transform="translate(-11.969 -4.14)" fill="#f0a70a"/>
      <g id="Group_31" data-name="Group 31" transform="translate(0 0)">
        <path id="Path_57" data-name="Path 57" d="M93.679,74.745c-5.007-3.148-13.055-1.592-13.956-1.4a2.32,2.32,0,0,0,.944,4.542c1.946-.4,7.634-1.04,10.543.789a2.32,2.32,0,1,0,2.47-3.927Z" transform="translate(-17.443 -16.009)"/>
        <circle id="Ellipse_13" data-name="Ellipse 13" cx="3.724" cy="3.724" r="3.724" transform="translate(65.284 66.35)"/>
        <circle id="Ellipse_14" data-name="Ellipse 14" cx="3.724" cy="3.724" r="3.724" transform="translate(33.278 66.35)"/>
        <path id="Path_58" data-name="Path 58" d="M52.223,73.342c-.9-.188-8.949-1.745-13.956,1.4a2.32,2.32,0,1,0,2.47,3.927c2.909-1.829,8.6-1.189,10.543-.789a2.32,2.32,0,0,0,.944-4.542Z" transform="translate(-8.493 -16.009)"/>
        <circle id="Ellipse_15" data-name="Ellipse 15" cx="4.098" cy="4.098" r="4.098" transform="translate(48.907 22.572)"/>
        <path id="Path_59" data-name="Path 59" d="M139.311,89.5a18.688,18.688,0,0,0-13.285,5.5,2.327,2.327,0,0,1-3.323,0c-12.488-12.461-35.393-2.636-31.621,18.128a44.265,44.265,0,0,0-21.721-10.213A32.792,32.792,0,0,0,85.894,79.44a14.175,14.175,0,0,0,5.014-25.7,8.219,8.219,0,0,0,1.635-4.915V14.9a9.793,9.793,0,0,0-7.594-9.527A5.781,5.781,0,0,0,79.179,0H32.813A18.347,18.347,0,0,0,14.278,18.109v33.2a5.287,5.287,0,0,0,.9,2.987A14.148,14.148,0,0,0,20.929,79.44a32.6,32.6,0,0,0,3.129,9.567A2.32,2.32,0,1,0,28.192,86.9,27.993,27.993,0,0,1,25.981,81a38.091,38.091,0,0,0,22.93,1.213,20.214,20.214,0,0,1,8.994,0A38.219,38.219,0,0,0,80.84,81C75.5,102.423,48.555,109.593,33.173,93.84a2.32,2.32,0,1,0-3.319,3.241,33.09,33.09,0,0,0,7.607,5.82A44.378,44.378,0,0,0,.4,146.676,11.537,11.537,0,0,0,11.928,158.2H81.9a2.32,2.32,0,1,0,0-4.639H66.536l15.4-17.068a3.554,3.554,0,0,0-.17-5l-2.686-2.617,3.71-1.563a3.8,3.8,0,0,0,1.794-5.5L77.71,110.156A39.687,39.687,0,0,1,92.8,121.525c5.63,30.069,5.046,28.338,6.267,30.625-2.251,1.721-4.187,1.41-7.846,1.41a2.32,2.32,0,1,0,0,4.639c3.776,0,7.159.408,10.8-2.468,7.089,5.751,17.344,1.319,18.794-6.354l2.041-10.9a1.529,1.529,0,0,1,3.01,0c.023.12,2.045,10.939,2.075,11.057a11.732,11.732,0,0,0,22.768-.16l.238-1.272a2.32,2.32,0,0,0-4.56-.854l-.224,1.193a7.1,7.1,0,0,1-13.711.009l-2.027-10.826c-1.253-6.7-10.875-6.706-12.131,0l-2.026,10.818a7.1,7.1,0,0,1-13.71.009c-7.747-41.377-7.319-37.718-7.319-40.138,0-12.613,15.311-18.893,24.186-10.038a6.964,6.964,0,0,0,9.877,0c8.891-8.872,24.186-2.559,24.186,10.038a31.418,31.418,0,0,1-1.2,7.4l-4.2,22.417a2.32,2.32,0,1,0,4.56.854l4.18-22.321a32.549,32.549,0,0,0,1.293-8.349A18.838,18.838,0,0,0,139.311,89.5ZM83.1,52.172a13.759,13.759,0,0,1-8.877-13.258A38.022,38.022,0,0,0,77.046,35.1H87.9V48.824A3.553,3.553,0,0,1,83.1,52.172Zm9.5,13.384a9.551,9.551,0,0,1-6.281,8.959c.008-.638.006,1.785.006-17.718.1-.026.2-.052.3-.081a9.484,9.484,0,0,1,5.971,8.84ZM84.586,10.1A5.142,5.142,0,0,1,87.9,14.9v3.192H83.576C84.061,15.159,84.372,12.27,84.586,10.1ZM87.9,22.726v7.732H67.2a14.415,14.415,0,0,0-.043-7.732ZM32.813,4.639H79.179a1.149,1.149,0,0,1,1.15,1.218c-.022.309-.625,7.507-1.459,12.23H64.845a14.3,14.3,0,0,0-22.873,0H18.918A13.7,13.7,0,0,1,32.813,4.639Zm14.239,29.3a9.66,9.66,0,1,1,14.422-12.59C67.8,30.919,55.3,41.159,47.053,33.943ZM18.917,22.726h20.74a14.417,14.417,0,0,0-.043,7.732h-20.7ZM20.488,56.6c0,19.719,0,17.271.006,17.91A9.537,9.537,0,0,1,20.488,56.6Zm-.405-4.841a.673.673,0,0,1-1.166-.456V35.1H41.859a14.3,14.3,0,0,0,23.1,0h6.39C56.4,54.065,32.033,39.988,20.083,51.763ZM59.089,77.729a24.732,24.732,0,0,0-11.359,0,34.273,34.273,0,0,1-22.556-2.037c-.063-1.133-.046.207-.046-22.035,9.72-6.142,29.749,1.879,44.865-10.551a18.224,18.224,0,0,0,11.7,13.487c0,19,.017,17.971-.046,19.1a34.269,34.269,0,0,1-22.555,2.036Zm1.733,28.439L55.609,118.46a2.39,2.39,0,0,1-4.4,0L46,106.173a33.373,33.373,0,0,0,14.822-.005ZM11.928,153.56a6.893,6.893,0,0,1-6.885-6.885,39.649,39.649,0,0,1,24.087-36.559l-6.9,11.7a3.8,3.8,0,0,0,1.794,5.5l3.709,1.563-2.686,2.617a3.554,3.554,0,0,0-.17,5l15.4,17.067ZM29,134.128l3.07-2.991a3.623,3.623,0,0,0-1.236-5.991L26.687,123.4l6.462-10.963,8.2,35.384ZM47.445,153.56,36.821,107.734a40.057,40.057,0,0,1,4.529-.645l5.587,13.182a7.028,7.028,0,0,0,12.944,0l5.589-13.18a39.6,39.6,0,0,1,4.526.65L59.373,153.56ZM80.132,123.4l-4.144,1.746a3.623,3.623,0,0,0-1.236,5.991l3.07,2.991L65.466,147.821l8.2-35.385Z" transform="translate(-0.404 0)"/>
        <path id="Path_60" data-name="Path 60" d="M169.433,155.523a2.32,2.32,0,0,0,2.32-2.32v-4.673h4.673a2.32,2.32,0,0,0,0-4.639h-4.673v-4.673a2.32,2.32,0,0,0-4.639,0v4.673h-4.672a2.32,2.32,0,1,0,0,4.639h4.672V153.2A2.32,2.32,0,0,0,169.433,155.523Z" transform="translate(-35.53 -30.108)"/>
      </g>
    </g>
  </g>
</svg>
