<svg xmlns="http://www.w3.org/2000/svg" xmlns:xlink="http://www.w3.org/1999/xlink" width="103" height="103" viewBox="0 0 103 103">
  <defs>
    <filter id="Ellipse_17" x="0" y="0" width="103" height="103" filterUnits="userSpaceOnUse">
      <feOffset dx="5" dy="5" input="SourceAlpha"/>
      <feGaussianBlur stdDeviation="5" result="blur"/>
      <feFlood flood-opacity="0.161"/>
      <feComposite operator="in" in2="blur"/>
      <feComposite in="SourceGraphic"/>
    </filter>
    <clipPath id="clip-path">
      <circle id="Ellipse_16" data-name="Ellipse 16" cx="36.5" cy="36.5" r="36.5" transform="translate(1776 49)" fill="#fff" stroke="#707070" stroke-width="1"/>
    </clipPath>
  </defs>
  <g id="image-doc" transform="translate(-1693 -39)">
    <g transform="matrix(1, 0, 0, 1, 1693, 39)" filter="url(#Ellipse_17)">
      <circle id="Ellipse_17-2" data-name="Ellipse 17" cx="36.5" cy="36.5" r="36.5" transform="translate(10 10)" fill="rgba(236,99,47,0.8)"/>
    </g>
    <g id="Group_2" data-name="Group 2" transform="translate(-73)" clip-path="url(#clip-path)">
      <g id="doctor" transform="translate(1781.5 59.599)">
        <path id="Path_61" data-name="Path 61" d="M62.5,60.066v9.4H0v-9.4a6.03,6.03,0,0,1,3.84-5.625l13.178-5.182L27.3,60.562l3.228-6.576v-.013L31.25,52.5l.73,1.473,3.229,6.589,10.272-11.3,13.191,5.182A6.052,6.052,0,0,1,62.5,60.066" transform="translate(0 -7.065)" fill="#f2f2f2"/>
        <path id="Path_62" data-name="Path 62" d="M44.167,46.072h.013V40.721a28.826,28.826,0,0,1-2.4,3.141L40.5,45.268a6.237,6.237,0,0,1-4.57,2.018H33.979a6.23,6.23,0,0,1-4.57-2.018l-1.276-1.406a28.3,28.3,0,0,1-2.423-3.174v5.376l.021.01L33.765,50.6l1.185.664,1.185-.664Z" transform="translate(-3.698 -5.832)" fill="#f8b64c"/>
        <g id="Group_35" data-name="Group 35" transform="translate(27.848 34.916)" opacity="0.1">
          <g id="Group_34" data-name="Group 34">
            <path id="Path_63" data-name="Path 63" d="M32.635,46.82l-.023-.008c-.013-.005-.027-.009-.04-.013s-.027-.008-.046-.014l4.91,3.647,7.711-4.349h.008l.005-5.324c-.013.02-1.831,2.4-2.4,3.111l-1.276,1.408a6.237,6.237,0,0,1-4.57,2.018H34.96a5.556,5.556,0,0,1-1.16-.124,6.03,6.03,0,0,1-1.164-.352" transform="translate(-32.526 -40.758)" fill="#40596b"/>
          </g>
        </g>
        <g id="Group_36" data-name="Group 36" transform="translate(16.28 19.996)">
          <path id="Path_64" data-name="Path 64" d="M24.847,27.32c.2,2.337-.931,4.346-2.533,4.484s-3.069-1.642-3.276-3.979.931-4.344,2.535-4.484,3.07,1.641,3.273,3.979" transform="translate(-19.015 -23.333)" fill="#f8b64c"/>
          <path id="Path_65" data-name="Path 65" d="M52.992,27.828c-.2,2.337-1.671,4.119-3.273,3.978s-2.74-2.147-2.533-4.484,1.671-4.12,3.273-3.979,2.738,2.147,2.533,4.486" transform="translate(-23.063 -23.333)" fill="#f8b64c"/>
        </g>
        <path id="Path_66" data-name="Path 66" d="M47.522,24.533a25.544,25.544,0,0,1-6.457,14.035l-1.276,1.406a6.234,6.234,0,0,1-4.57,2.02H33.265a6.226,6.226,0,0,1-4.57-2.02l-1.276-1.406a25.655,25.655,0,0,1-6.46-14.035,50.471,50.471,0,0,1,0-9.375,13.465,13.465,0,0,1,26.563,0,50.486,50.486,0,0,1,0,9.375" transform="translate(-2.984 -0.542)" fill="#ffd15c"/>
        <path id="Path_67" data-name="Path 67" d="M23.689,6.657S23.78-2.11,36.526.69A22.063,22.063,0,0,1,46.92,8.555s3.818,5.544,1.742,10.208A11.244,11.244,0,0,0,47.347,23.4s-.707-2.954-1.129-5.417a11.526,11.526,0,0,0-2.6-5.581l-.04-.048a8.924,8.924,0,0,0-8.928-2.909,16.036,16.036,0,0,0-5.283,2.579s-5.31-3.564-7.935,2.674a33.542,33.542,0,0,0-1,8.162S13.115,7.56,23.689,6.657" transform="translate(-2.584 0)" fill="#40596b"/>
        <path id="Path_68" data-name="Path 68" d="M55.355,52.432a10.877,10.877,0,0,0-.494-3.072,4.669,4.669,0,0,0-3.49-2.539l-4.193-.846v.859h-.013l-.6.339,4.6.937a3.337,3.337,0,0,1,2.526,1.835,3.288,3.288,0,0,1,.353,2.006l-.027.339c-5.508,4.779-7.07,9.089-7.135,9.284a3.333,3.333,0,0,0,.066,2.917,2.011,2.011,0,0,0,1.444.9l.13-1.3a.752.752,0,0,1-.494-.326A2.253,2.253,0,0,1,48.118,62a19.357,19.357,0,0,1,3.125-5.014,2.791,2.791,0,0,1,3.685,1.093,19.888,19.888,0,0,1-.326,5.991c-.249.807-.587,1.341-.964,1.484a.635.635,0,0,1-.574-.026l-.326.572-.339.564a1.976,1.976,0,0,0,.99.26,1.788,1.788,0,0,0,.7-.143,3.327,3.327,0,0,0,1.77-2.331c.053-.2,1.263-4.741-.509-12.019M53.626,55.8a3.805,3.805,0,0,0-1.2-.155c.563-.613,1.185-1.237,1.889-1.874.2.91.339,1.783.443,2.6a3.866,3.866,0,0,0-1.131-.576" transform="translate(-6.698 -6.593)" fill="#acb3ba"/>
        <g id="Group_37" data-name="Group 37" transform="translate(41.451 57.235)">
          <path id="Path_69" data-name="Path 69" d="M49.8,67.966a.969.969,0,0,1-1.137.762c-.521-.1-.15-2,.374-1.9a.968.968,0,0,1,.763,1.135" transform="translate(-48.414 -66.827)" fill="#f8b64c"/>
          <path id="Path_70" data-name="Path 70" d="M52.486,68.823a.967.967,0,0,0,.475,1.281c.486.223,1.292-1.534.806-1.758a.968.968,0,0,0-1.281.477" transform="translate(-48.987 -67.033)" fill="#f8b64c"/>
        </g>
        <path id="Path_71" data-name="Path 71" d="M23.9,46.833l-.021-.01v-.849l-2.815.579a10.1,10.1,0,0,0-7.215,13.96l1.193-.523A8.8,8.8,0,0,1,21.324,47.83l3.181-.655Z" transform="translate(-1.869 -6.593)" fill="#acb3ba"/>
        <g id="Group_38" data-name="Group 38" transform="translate(17.018 40.227)">
          <path id="Path_72" data-name="Path 72" d="M50.732,48.928l-9.608,12.6L36.5,52.17l1.185-.664,8.034-4.531h.013l.013-.013Z" transform="translate(-22.268 -46.962)" fill="#cdd6e0"/>
          <path id="Path_73" data-name="Path 73" d="M19.877,48.928l9.624,12.6,4.608-9.362-1.185-.664L24.89,46.975l-.026-.013Z" transform="translate(-19.877 -46.962)" fill="#cdd6e0"/>
        </g>
        <path id="Path_74" data-name="Path 74" d="M31.118,70.011l2.629-5.99-1.134-1.667-.831-1.25,3.227-6.587.717-1.473.73,1.473v.013l3.229,6.574-.846,1.238L37.7,64.022l2.645,5.99Z" transform="translate(-4.476 -7.61)" fill="#334a5e"/>
        <path id="Path_75" data-name="Path 75" d="M39.8,61.105l-.846,1.238L35.85,56l-3.126,6.354-.831-1.25,3.227-6.587.717-1.473.73,1.473v.013Z" transform="translate(-4.587 -7.61)" fill="#2a4356"/>
        <path id="Path_76" data-name="Path 76" d="M18.272,64.841a2.949,2.949,0,1,1-2.951-2.948,2.952,2.952,0,0,1,2.951,2.948" transform="translate(-1.78 -8.883)" fill="#ff7058"/>
        <path id="Path_77" data-name="Path 77" d="M17.466,65a1.981,1.981,0,1,1-1.979-1.98A1.979,1.979,0,0,1,17.466,65" transform="translate(-1.942 -9.045)" fill="#f2f2f2"/>
        <path id="Path_78" data-name="Path 78" d="M16.973,65.1a1.388,1.388,0,1,1-1.385-1.387A1.386,1.386,0,0,1,16.973,65.1" transform="translate(-2.042 -9.145)" fill="#acb3ba"/>
      </g>
    </g>
  </g>
</svg>
