<svg xmlns="http://www.w3.org/2000/svg" width="73" height="73" viewBox="0 0 73 73">
  <g id="Profile" transform="translate(-1158 -49)">
    <g id="Ellipse_1" data-name="Ellipse 1" transform="translate(1158 49)" fill="none" stroke="#707070" stroke-width="1">
      <circle cx="36.5" cy="36.5" r="36.5" stroke="none"/>
      <circle cx="36.5" cy="36.5" r="36" fill="none"/>
    </g>
    <g id="portfolio" transform="translate(1177.993 68)">
      <g id="Group_11" data-name="Group 11" transform="translate(0.007)">
        <g id="Group_10" data-name="Group 10">
          <path id="Path_5" data-name="Path 5" d="M29.421,10.568a.711.711,0,0,0,.71-.71V2.131A2.134,2.134,0,0,0,28,0H2.138A2.134,2.134,0,0,0,.007,2.131V34.245a2.134,2.134,0,0,0,2.131,2.131H28a2.134,2.134,0,0,0,2.131-2.131V29.011a.71.71,0,0,0-1.421,0v5.234a.711.711,0,0,1-.71.71H2.138a.711.711,0,0,1-.71-.71V2.131a.711.711,0,0,1,.71-.71H28a.711.711,0,0,1,.71.71V9.858A.711.711,0,0,0,29.421,10.568Z" transform="translate(-0.007)" fill="#707070"/>
        </g>
      </g>
      <g id="Group_13" data-name="Group 13" transform="translate(8.533 3.837)">
        <g id="Group_12" data-name="Group 12">
          <path id="Path_6" data-name="Path 6" d="M126.543,54a6.533,6.533,0,0,0-4.484,11.287.7.7,0,0,0,.076.071,6.524,6.524,0,0,0,8.816,0,.712.712,0,0,0,.076-.071A6.533,6.533,0,0,0,126.543,54Zm0,11.652a5.088,5.088,0,0,1-3.09-1.042,3.552,3.552,0,0,1,6.18,0A5.088,5.088,0,0,1,126.543,65.652Zm-1.137-5.4V59.79a1.137,1.137,0,0,1,2.274,0v.462a1.137,1.137,0,0,1-2.274,0Zm5.253,3.317a4.929,4.929,0,0,0-2.093-1.755,2.544,2.544,0,0,0,.535-1.562V59.79a2.558,2.558,0,0,0-5.115,0v.462a2.544,2.544,0,0,0,.535,1.562,4.929,4.929,0,0,0-2.093,1.755,5.115,5.115,0,1,1,8.233,0Z" transform="translate(-120.007 -54)" fill="#707070"/>
        </g>
      </g>
      <g id="Group_15" data-name="Group 15" transform="translate(14.359 31.119)">
        <g id="Group_14" data-name="Group 14">
          <path id="Path_7" data-name="Path 7" d="M206.554,438h-3.837a.71.71,0,0,0,0,1.421h3.837a.71.71,0,0,0,0-1.421Z" transform="translate(-202.007 -438)" fill="#707070"/>
        </g>
      </g>
      <g id="Group_17" data-name="Group 17" transform="translate(8.106 27.14)">
        <g id="Group_16" data-name="Group 16">
          <path id="Path_8" data-name="Path 8" d="M124.806,382H114.717a.71.71,0,1,0,0,1.421h10.089a.71.71,0,1,0,0-1.421Z" transform="translate(-114.007 -382)" fill="#707070"/>
        </g>
      </g>
      <g id="Group_19" data-name="Group 19" transform="translate(8.106 23.162)">
        <g id="Group_18" data-name="Group 18">
          <path id="Path_9" data-name="Path 9" d="M124.806,326H114.717a.71.71,0,0,0,0,1.421h10.089a.71.71,0,1,0,0-1.421Z" transform="translate(-114.007 -326)" fill="#707070"/>
        </g>
      </g>
      <g id="Group_21" data-name="Group 21" transform="translate(5.071 19.183)">
        <g id="Group_20" data-name="Group 20">
          <path id="Path_10" data-name="Path 10" d="M72.5,270.208a.71.71,0,1,0,.208.5A.716.716,0,0,0,72.5,270.208Z" transform="translate(-71.287 -270)" fill="#707070"/>
        </g>
      </g>
      <g id="Group_23" data-name="Group 23" transform="translate(5.071 23.162)">
        <g id="Group_22" data-name="Group 22">
          <path id="Path_11" data-name="Path 11" d="M72.5,326.208a.71.71,0,1,0,.208.5A.717.717,0,0,0,72.5,326.208Z" transform="translate(-71.287 -326)" fill="#707070"/>
        </g>
      </g>
      <g id="Group_25" data-name="Group 25" transform="translate(5.071 27.14)">
        <g id="Group_24" data-name="Group 24">
          <path id="Path_12" data-name="Path 12" d="M72.5,382.208a.71.71,0,1,0,.208.5A.717.717,0,0,0,72.5,382.208Z" transform="translate(-71.287 -382)" fill="#707070"/>
        </g>
      </g>
      <g id="Group_27" data-name="Group 27" transform="translate(8.106 19.183)">
        <g id="Group_26" data-name="Group 26">
          <path id="Path_13" data-name="Path 13" d="M124.806,270H114.717a.71.71,0,0,0,0,1.421h10.089a.71.71,0,0,0,0-1.421Z" transform="translate(-114.007 -270)" fill="#707070"/>
        </g>
      </g>
      <g id="Group_29" data-name="Group 29" transform="translate(21.15 8.858)">
        <g id="Group_28" data-name="Group 28">
          <path id="Path_14" data-name="Path 14" d="M311.331,125.076a2.984,2.984,0,0,0-4.076,1.092l-8.941,15.486a.712.712,0,0,0-.091.276l-.629,5.637a.71.71,0,0,0,1.127.651l4.567-3.364a.709.709,0,0,0,.194-.217l8.941-15.486A2.987,2.987,0,0,0,311.331,125.076Zm-12.145,21.035.329-2.944,2.056,1.187Zm3.421-2.8-2.707-1.563,7.175-12.427,2.707,1.563Zm8.585-14.87-.7,1.213-2.707-1.563.7-1.213a1.563,1.563,0,0,1,2.707,1.563Z" transform="translate(-297.589 -124.675)" fill="#707070"/>
        </g>
      </g>
    </g>
  </g>
</svg>
